<svg xmlns="http://www.w3.org/2000/svg" xmlns:xlink="http://www.w3.org/1999/xlink" xmlns:lucid="lucid" width="430" height="140"><g transform="translate(-115 -772)" lucid:page-tab-id="nNEB_Hy2Mfuf"><path d="M315.63 793h300v100h-300z" fill="none"/><use xlink:href="#a" transform="matrix(1,0,0,1,315.6275831098634,793) translate(0 30.12666666666667)"/><use xlink:href="#b" transform="matrix(1,0,0,1,315.6275831098634,793) translate(89.88222222222224 30.12666666666667)"/><use xlink:href="#c" transform="matrix(1,0,0,1,315.6275831098634,793) translate(0 59.46000000000001)"/><use xlink:href="#d" transform="matrix(1,0,0,1,315.6275831098634,793) translate(102.98444444444445 59.46000000000001)"/><use xlink:href="#e" transform="matrix(1,0,0,1,315.6275831098634,793) translate(0 88.79333333333334)"/><use xlink:href="#f" transform="matrix(1,0,0,1,315.6275831098634,793) translate(61.86888888888888 88.79333333333334)"/><path d="M282.37 794v98M282.37 794.03V793M282.37 891.97V893" stroke="#000" stroke-width="2" fill="none"/><path d="M102.37 840h180v66h-180z" stroke="#000" stroke-opacity="0" stroke-width="2" fill="#fff" fill-opacity="0"/><use xlink:href="#g" transform="matrix(1,0,0,1,107.37241689013644,845) translate(29.599999999999994 43.48)"/><path d="M173.37 832.98h48c3.3 0 6-2.88 6-6.42v-34.14c0-3.54-2.7-6.42-6-6.42h-48c-3.3 0-6 2.88-6 6.42v34.14c0 3.54 2.7 6.42 6 6.42zm15.9-36.3l20.76 12.78-20.76 12.84v-25.62z" stroke="#000" stroke-opacity="0" stroke-width=".98" fill="#ff5722"/><path d="M189.27 796.68v25.62l20.76-12.84-20.76-12.78z" stroke="#000" stroke-opacity="0" stroke-width=".98" fill="#fff"/><path d="M209.13 841.62c0-.42.06-.84.18-1.26h-41.93v2.52h41.94c-.1-.42-.17-.84-.17-1.26zM217.1 842.88h10.27v-2.52H217.1c.13.42.2.84.2 1.26 0 .42-.07.84-.2 1.26z" stroke="#000" stroke-opacity="0" stroke-width=".98" fill="#2d2d2d"/><path d="M209.3 842.88c.5 1.8 2.05 3.12 3.9 3.12 1.87 0 3.43-1.32 3.9-3.12.13-.42.2-.84.2-1.26 0-.42-.07-.84-.2-1.26-.47-1.8-2.03-3.12-3.9-3.12-1.85 0-3.4 1.32-3.9 3.12-.1.42-.17.84-.17 1.26 0 .42.06.84.18 1.26z" stroke="#000" stroke-opacity="0" stroke-width=".98" fill="#ff5722"/><path d="M112.37 780h170v66h-170z" stroke="#000" stroke-opacity="0" stroke-width="2" fill="#fff" fill-opacity="0"/><g><use xlink:href="#h" transform="matrix(1,0,0,1,117.37241689013644,785) translate(9.480000000000004 43.48)"/><use xlink:href="#i" transform="matrix(1,0,0,1,117.37241689013644,785) translate(121.48 43.48)"/></g><defs><path d="M1153-1030c0 232-137 352-319 413 34 19 63 47 88 83L1284 0h-242c-51 0-80-22-101-54L637-517c-24-34-42-48-98-48H424V0H155v-1446h441c324 4 557 105 557 416zm-263 20c0-163-114-229-294-228H424v480h168c180-3 298-77 298-252" id="j"/><path d="M991-153C899-47 760 15 568 15 237 15 63-197 63-535c0-237 116-392 287-467 61-27 129-40 206-40 287 0 444 174 444 465 0 54-3 95-57 95H309c4 226 158 349 385 292 52-13 93-39 132-62 32-19 73-16 93 9zM778-631c-4-143-73-234-217-234-154 0-226 95-247 234h464" id="k"/><path d="M601-1285c-158 0-198 102-186 268h267v176H423V0H176v-840c-61-14-153-3-153-76v-101h153c-17-292 113-454 383-454 47 0 91 6 132 19l-5 124c-1 41-44 43-85 43" id="l"/><path d="M395-1026V0H148v-1026h247zm-123-457c96 0 160 62 160 158 0 94-65 155-160 155-93 0-156-62-156-155 0-95 61-158 156-158" id="m"/><path d="M605-850c-102 1-168 52-226 108V0H132v-1026c80 9 198-29 214 45l17 81c77-76 165-142 317-142 235 0 346 154 346 389V0H779v-653c0-121-55-198-174-197" id="n"/><path d="M502-1045c120-1 193 43 256 101v-542h247V0c-80-9-199 29-214-45l-20-99C693-58 601 15 441 15 163 15 61-217 61-510c0-241 98-411 259-494 54-27 115-41 182-41zM316-510c0 181 36 329 209 329 118 0 173-54 233-123v-460c-48-59-104-93-198-93-188 0-244 151-244 347" id="o"/><g id="a"><use transform="matrix(0.012222222222222223,0,0,0.012222222222222223,0,0)" xlink:href="#j"/><use transform="matrix(0.012222222222222223,0,0,0.012222222222222223,16.011111111111113,0)" xlink:href="#k"/><use transform="matrix(0.012222222222222223,0,0,0.012222222222222223,29.076666666666668,0)" xlink:href="#l"/><use transform="matrix(0.012222222222222223,0,0,0.012222222222222223,37.644444444444446,0)" xlink:href="#m"/><use transform="matrix(0.012222222222222223,0,0,0.012222222222222223,44.26888888888889,0)" xlink:href="#n"/><use transform="matrix(0.012222222222222223,0,0,0.012222222222222223,58.16555555555556,0)" xlink:href="#k"/><use transform="matrix(0.012222222222222223,0,0,0.012222222222222223,71.23111111111112,0)" xlink:href="#o"/></g><path d="M789-562V0H520v-562L-7-1446h237c50 0 72 27 90 60 102 188 210 370 305 564 12 25 22 51 31 76 20-56 40-105 69-157l263-483c15-28 44-60 89-60h238" id="p"/><path d="M361-1005c121-49 297-49 417 0 184 74 298 236 298 490 0 330-178 530-506 530C241 15 61-185 61-515c0-254 115-416 300-490zm-45 492c0 201 65 338 254 338 188 0 251-137 251-338s-63-340-251-340c-189 0-254 139-254 340" id="q"/><path d="M457 16c-234 0-346-155-346-390v-652h247v652c0 121 55 198 174 197 102-1 168-51 226-107v-742h247V0c-80-9-199 29-214-45l-17-82C697-50 608 16 457 16" id="r"/><path d="M1165-1446v221H730V0H461v-1225H24v-221h1141" id="s"/><path d="M638 15c-134 0-208-58-269-132-10 52-5 117-71 117H135v-1486h247v586c77-79 169-142 318-142 277 0 379 230 379 521 0 241-97 412-259 495-54 27-115 41-182 41zm186-536c0-181-37-329-209-329-117 0-175 55-233 124v460c48 61 104 93 199 93 187 0 243-152 243-348" id="t"/><g id="b"><use transform="matrix(0.012222222222222223,0,0,0.012222222222222223,0,0)" xlink:href="#p"/><use transform="matrix(0.012222222222222223,0,0,0.012222222222222223,14.043333333333335,0)" xlink:href="#q"/><use transform="matrix(0.012222222222222223,0,0,0.012222222222222223,27.94000000000001,0)" xlink:href="#r"/><use transform="matrix(0.012222222222222223,0,0,0.012222222222222223,41.83666666666667,0)" xlink:href="#s"/><use transform="matrix(0.012222222222222223,0,0,0.012222222222222223,54.42555555555556,0)" xlink:href="#r"/><use transform="matrix(0.012222222222222223,0,0,0.012222222222222223,68.32222222222222,0)" xlink:href="#t"/><use transform="matrix(0.012222222222222223,0,0,0.012222222222222223,82.25555555555556,0)" xlink:href="#k"/></g><path d="M519-204c146 0 246-70 241-211-6-175-195-185-333-232-183-63-339-153-333-400 5-199 120-319 272-380 126-51 311-44 437 5 72 27 133 64 184 112l-66 127c-15 40-64 51-105 25-64-41-136-87-246-85-132 3-224 54-224 182 0 167 202 176 334 227 173 67 333 144 333 381 0 227-120 364-289 433-138 56-353 39-478-16-80-35-154-80-210-138l78-129c23-34 74-43 115-13 73 54 157 112 290 112" id="u"/><path d="M556-1045c246 0 380 151 380 397V0c-79-6-181 23-196-53l-22-73C630-49 541 18 379 16 194 13 81-77 81-262c0-184 152-247 321-292 78-21 176-31 293-34 10-155-29-262-170-262-104 0-161 40-224 77-47 28-107 5-127-31l-45-79c118-108 260-162 427-162zM317-275c-3 86 56 121 139 121 117 0 179-51 239-111v-173c-122 6-219 17-297 53-49 22-79 51-81 110" id="v"/><path d="M604-806c-122 5-180 74-225 167V0H132v-1026c83 11 206-35 218 62l15 124c63-106 147-205 295-205 51 0 93 12 126 35l-32 185c-4 23-15 33-40 33-33 0-65-16-110-14" id="w"/><path d="M928-153C839-49 712 15 524 15c-227 0-358-131-424-305-47-123-49-306-4-434 67-190 213-318 465-318 165 0 270 58 357 143-29 37-52 81-86 112-71 26-104-41-170-55-24-5-52-12-86-12-192 5-260 143-260 339 0 194 67 336 254 342 98 3 148-38 200-79 26-20 67-17 87 9" id="x"/><path d="M605-850c-102 1-168 52-226 108V0H132v-1486h247v571c76-69 161-129 301-127 234 4 346 154 346 389V0H779v-653c0-121-55-198-174-197" id="y"/><path d="M254-198c95 60 334 64 323-83-9-119-156-122-253-159C192-490 72-550 72-729c0-214 163-309 387-313 145-3 264 55 338 127-26 36-45 82-77 111-69 21-111-33-176-48-103-23-247 0-238 102 11 114 156 118 251 155 126 49 251 100 251 270C808-59 575 48 294 6 192-9 106-54 42-110c28-39 43-95 83-120 49-31 96 11 129 32" id="z"/><g id="c"><use transform="matrix(0.012222222222222223,0,0,0.012222222222222223,0,0)" xlink:href="#u"/><use transform="matrix(0.012222222222222223,0,0,0.012222222222222223,13.114444444444445,0)" xlink:href="#k"/><use transform="matrix(0.012222222222222223,0,0,0.012222222222222223,26.18,0)" xlink:href="#v"/><use transform="matrix(0.012222222222222223,0,0,0.012222222222222223,38.97666666666667,0)" xlink:href="#w"/><use transform="matrix(0.012222222222222223,0,0,0.012222222222222223,48.96222222222222,0)" xlink:href="#x"/><use transform="matrix(0.012222222222222223,0,0,0.012222222222222223,60.62222222222223,0)" xlink:href="#y"/><use transform="matrix(0.012222222222222223,0,0,0.012222222222222223,74.51888888888888,0)" xlink:href="#k"/><use transform="matrix(0.012222222222222223,0,0,0.012222222222222223,87.58444444444444,0)" xlink:href="#z"/></g><g id="d"><use transform="matrix(0.012222222222222223,0,0,0.012222222222222223,0,0)" xlink:href="#l"/><use transform="matrix(0.012222222222222223,0,0,0.012222222222222223,8.567777777777778,0)" xlink:href="#q"/><use transform="matrix(0.012222222222222223,0,0,0.012222222222222223,22.464444444444446,0)" xlink:href="#w"/></g><path d="M382-1486v851c54 1 89-1 115-33l255-315c22-25 41-43 86-43h226C946-887 832-742 710-606c-11 12-25 21-39 30 29 21 48 49 69 78L1082 0H859c-44-1-65-15-85-44L513-433c-20-29-30-36-75-37h-56V0H135v-1486h247" id="A"/><path d="M395-1486V0H148v-1486h247" id="B"/><g id="e"><use transform="matrix(0.012222222222222223,0,0,0.012222222222222223,0,0)" xlink:href="#u"/><use transform="matrix(0.012222222222222223,0,0,0.012222222222222223,13.114444444444445,0)" xlink:href="#A"/><use transform="matrix(0.012222222222222223,0,0,0.012222222222222223,26.595555555555556,0)" xlink:href="#m"/><use transform="matrix(0.012222222222222223,0,0,0.012222222222222223,33.22,0)" xlink:href="#B"/><use transform="matrix(0.012222222222222223,0,0,0.012222222222222223,39.84444444444444,0)" xlink:href="#B"/><use transform="matrix(0.012222222222222223,0,0,0.012222222222222223,46.468888888888884,0)" xlink:href="#z"/></g><path d="M565-850c-86 0-140 48-186 99V0H132v-1026c80 9 198-29 214 45l16 76c67-72 141-136 276-137 139-1 214 86 253 192 57-117 162-192 328-192 240 0 354 147 354 389V0h-247v-653c1-123-52-197-169-197s-180 76-180 197V0H729v-653c0-127-46-197-164-197" id="C"/><path d="M738-75c-64 55-158 90-269 91-176 2-277-109-277-284v-573c-65-4-153 21-153-52v-98l165-27 52-280c10-66 115-35 183-42v323h270v176H439v556c-1 59 32 101 88 102 48 1 68-25 104-34 19 1 25 9 33 22" id="D"/><g id="f"><use transform="matrix(0.012222222222222223,0,0,0.012222222222222223,0,0)" xlink:href="#k"/><use transform="matrix(0.012222222222222223,0,0,0.012222222222222223,13.065555555555557,0)" xlink:href="#n"/><use transform="matrix(0.012222222222222223,0,0,0.012222222222222223,26.962222222222223,0)" xlink:href="#y"/><use transform="matrix(0.012222222222222223,0,0,0.012222222222222223,40.85888888888889,0)" xlink:href="#v"/><use transform="matrix(0.012222222222222223,0,0,0.012222222222222223,53.65555555555556,0)" xlink:href="#n"/><use transform="matrix(0.012222222222222223,0,0,0.012222222222222223,67.55222222222223,0)" xlink:href="#x"/><use transform="matrix(0.012222222222222223,0,0,0.012222222222222223,79.21222222222222,0)" xlink:href="#k"/><use transform="matrix(0.012222222222222223,0,0,0.012222222222222223,92.27777777777779,0)" xlink:href="#C"/><use transform="matrix(0.012222222222222223,0,0,0.012222222222222223,112.86,0)" xlink:href="#k"/><use transform="matrix(0.012222222222222223,0,0,0.012222222222222223,125.92555555555559,0)" xlink:href="#n"/><use transform="matrix(0.012222222222222223,0,0,0.012222222222222223,139.82222222222225,0)" xlink:href="#D"/></g><path d="M524-252c120-1 200-49 194-169-8-162-195-164-324-209-183-64-330-162-324-410 5-208 127-332 287-396 178-72 447-26 571 54 32 21 62 40 88 64l-84 157c-19 43-73 61-124 33-64-36-131-79-234-79-114 0-188 47-188 150 0 109 114 131 206 161 219 72 447 139 444 429-3 234-123 379-300 445-265 98-584-9-722-154l100-158c22-40 88-51 134-21 74 48 151 104 276 103" id="E"/><path d="M440-1037V0H130v-1037h310zm-154-466c113 0 190 70 190 182 0 111-79 180-190 180-109 0-184-71-184-180 0-110 74-182 184-182" id="F"/><path d="M232-439C135-490 58-579 58-718c0-234 188-330 428-337 92-3 169 20 233 50h313c-5 52 14 124-14 154-23 25-86 29-126 40 66 303-178 459-498 423-40 20-49 70-6 84 149 48 389 2 514 89 58 41 104 101 100 201-8 190-138 291-296 340-237 73-576 24-664-139-18-33-28-67-28-102C16-21 87-74 171-106c-45-31-80-75-77-150 4-97 67-146 138-183zm50 484c0 94 106 99 210 99 98 0 176-9 214-64C756-84 500-31 348-55c-32 24-66 51-66 100zm58-756c0 91 53 137 146 138 96 2 146-50 146-138 0-90-49-135-146-135s-146 45-146 135" id="G"/><path d="M612-820c-81 1-134 39-182 81V0H120v-1497h310v551c73-60 149-110 278-107 236 5 352 157 352 394V0H750v-659c0-96-44-162-138-161" id="H"/><path d="M774-74c-71 55-172 90-290 90-196 0-304-108-304-303v-536c-70 1-146 12-146-61v-121l165-32 61-253c16-78 146-38 230-48v303h252v212H490v515c0 45 23 83 68 83 48 0 88-50 122 4" id="I"/><path d="M56-725c5-259 241-361 518-318 104 16 188 63 250 124l-70 109c-15 22-27 35-60 35-81 0-126-60-222-60-69 0-122 24-122 85 0 75 88 87 152 109 156 54 328 97 328 304C830-90 649 16 394 16 236 16 110-38 22-112c35-48 58-109 103-146 116-42 152 74 285 65 73-5 130-23 130-90 0-78-87-92-154-113C219-449 52-505 56-725" id="J"/><g id="g"><use transform="matrix(0.02,0,0,0.02,0,0)" xlink:href="#E"/><use transform="matrix(0.02,0,0,0.02,21.68,0)" xlink:href="#F"/><use transform="matrix(0.02,0,0,0.02,33.08,0)" xlink:href="#G"/><use transform="matrix(0.02,0,0,0.02,54,0)" xlink:href="#H"/><use transform="matrix(0.02,0,0,0.02,77.2,0)" xlink:href="#I"/><use transform="matrix(0.02,0,0,0.02,93.2,0)" xlink:href="#J"/></g><path d="M846-554V0H508v-554l-528-903h298c61-1 92 32 112 73 97 200 198 398 289 603 22-64 52-117 81-179l204-424c21-38 52-73 110-73h300" id="K"/><use transform="matrix(0.02,0,0,0.02,0,0)" xlink:href="#K" id="h"/><path d="M438-595c4 199 91 328 288 328 196 0 288-128 288-327v-863h338v863c-5 295-147 478-365 565-149 59-375 60-523 0-219-87-364-269-364-565v-863h338v862" id="L"/><use transform="matrix(0.02,0,0,0.02,0,0)" xlink:href="#L" id="i"/></defs></g></svg>