<svg xmlns="http://www.w3.org/2000/svg" xmlns:xlink="http://www.w3.org/1999/xlink" xmlns:lucid="lucid" width="210" height="180"><g transform="translate(-1420 -620)" lucid:page-tab-id="iefCIt7B4RrC"><path d="M1467.5 714h115v66h-115z" stroke="#000" stroke-opacity="0" stroke-width="2" fill="#fff" fill-opacity="0"/><use xlink:href="#a" transform="matrix(1,0,0,1,1472.5,719) translate(-2.9000000000000057 43.48)"/><path d="M1501 706.98h48c3.3 0 6-2.88 6-6.42v-34.14c0-3.54-2.7-6.42-6-6.42h-48c-3.3 0-6 2.88-6 6.42v34.14c0 3.54 2.7 6.42 6 6.42zm15.9-36.3l20.76 12.78-20.76 12.84v-25.62z" stroke="#000" stroke-opacity="0" stroke-width=".98" fill="#ff5722"/><path d="M1516.9 670.68v25.62l20.76-12.84-20.76-12.78z" stroke="#000" stroke-opacity="0" stroke-width=".98" fill="#fff"/><path d="M1536.76 715.62c0-.42.06-.84.18-1.26H1495v2.52h41.94c-.12-.42-.18-.84-.18-1.26zM1544.74 716.88H1555v-2.52h-10.26c.12.42.18.84.18 1.26 0 .42-.06.84-.18 1.26z" stroke="#000" stroke-opacity="0" stroke-width=".98" fill="#2d2d2d"/><path d="M1536.94 716.88c.48 1.8 2.04 3.12 3.9 3.12 1.86 0 3.42-1.32 3.9-3.12.12-.42.18-.84.18-1.26 0-.42-.06-.84-.18-1.26-.48-1.8-2.04-3.12-3.9-3.12-1.86 0-3.42 1.32-3.9 3.12-.12.42-.18.84-.18 1.26 0 .42.06.84.18 1.26z" stroke="#000" stroke-opacity="0" stroke-width=".98" fill="#ff5722"/><path d="M1440 640h170v80h-170z" stroke="#000" stroke-opacity="0" stroke-width="2" fill="#fff" fill-opacity="0"/><use xlink:href="#b" transform="matrix(1,0,0,1,1445,645) translate(9.480000000000004 50.48)"/><use xlink:href="#c" transform="matrix(1,0,0,1,1445,645) translate(121.48 50.48)"/><defs><path d="M524-252c120-1 200-49 194-169-8-162-195-164-324-209-183-64-330-162-324-410 5-208 127-332 287-396 178-72 447-26 571 54 32 21 62 40 88 64l-84 157c-19 43-73 61-124 33-64-36-131-79-234-79-114 0-188 47-188 150 0 109 114 131 206 161 219 72 447 139 444 429-3 234-123 379-300 445-265 98-584-9-722-154l100-158c22-40 88-51 134-21 74 48 151 104 276 103" id="d"/><path d="M440-1037V0H130v-1037h310zm-154-466c113 0 190 70 190 182 0 111-79 180-190 180-109 0-184-71-184-180 0-110 74-182 184-182" id="e"/><path d="M232-439C135-490 58-579 58-718c0-234 188-330 428-337 92-3 169 20 233 50h313c-5 52 14 124-14 154-23 25-86 29-126 40 66 303-178 459-498 423-40 20-49 70-6 84 149 48 389 2 514 89 58 41 104 101 100 201-8 190-138 291-296 340-237 73-576 24-664-139-18-33-28-67-28-102C16-21 87-74 171-106c-45-31-80-75-77-150 4-97 67-146 138-183zm50 484c0 94 106 99 210 99 98 0 176-9 214-64C756-84 500-31 348-55c-32 24-66 51-66 100zm58-756c0 91 53 137 146 138 96 2 146-50 146-138 0-90-49-135-146-135s-146 45-146 135" id="f"/><path d="M612-820c-81 1-134 39-182 81V0H120v-1497h310v551c73-60 149-110 278-107 236 5 352 157 352 394V0H750v-659c0-96-44-162-138-161" id="g"/><path d="M774-74c-71 55-172 90-290 90-196 0-304-108-304-303v-536c-70 1-146 12-146-61v-121l165-32 61-253c16-78 146-38 230-48v303h252v212H490v515c0 45 23 83 68 83 48 0 88-50 122 4" id="h"/><path d="M56-725c5-259 241-361 518-318 104 16 188 63 250 124l-70 109c-15 22-27 35-60 35-81 0-126-60-222-60-69 0-122 24-122 85 0 75 88 87 152 109 156 54 328 97 328 304C830-90 649 16 394 16 236 16 110-38 22-112c35-48 58-109 103-146 116-42 152 74 285 65 73-5 130-23 130-90 0-78-87-92-154-113C219-449 52-505 56-725" id="i"/><g id="a"><use transform="matrix(0.02,0,0,0.02,0,0)" xlink:href="#d"/><use transform="matrix(0.02,0,0,0.02,21.68,0)" xlink:href="#e"/><use transform="matrix(0.02,0,0,0.02,33.08,0)" xlink:href="#f"/><use transform="matrix(0.02,0,0,0.02,54,0)" xlink:href="#g"/><use transform="matrix(0.02,0,0,0.02,77.2,0)" xlink:href="#h"/><use transform="matrix(0.02,0,0,0.02,93.2,0)" xlink:href="#i"/></g><path d="M846-554V0H508v-554l-528-903h298c61-1 92 32 112 73 97 200 198 398 289 603 22-64 52-117 81-179l204-424c21-38 52-73 110-73h300" id="j"/><use transform="matrix(0.02,0,0,0.02,0,0)" xlink:href="#j" id="b"/><path d="M438-595c4 199 91 328 288 328 196 0 288-128 288-327v-863h338v863c-5 295-147 478-365 565-149 59-375 60-523 0-219-87-364-269-364-565v-863h338v862" id="k"/><use transform="matrix(0.02,0,0,0.02,0,0)" xlink:href="#k" id="c"/></defs></g></svg>